<?xml version="1.0" encoding="UTF-8"?>
<mxfile host="app.diagrams.net" modified="2023-12-20T14:10:44.041Z" agent="Mozilla/5.0 (Windows NT 10.0; Win64; x64) AppleWebKit/537.36 (KHTML, like Gecko) Chrome/120.0.0.0 Safari/537.36" etag="mQCP3oXxfEx7NTZALzka" version="22.1.11" type="google">
  <diagram name="Side-1" id="VSSqDgGgUyOYTDjSvPET">
    <mxGraphModel dx="794" dy="420" grid="1" gridSize="10" guides="1" tooltips="1" connect="1" arrows="1" fold="1" page="1" pageScale="1" pageWidth="827" pageHeight="1169" math="0" shadow="0">
      <root>
        <mxCell id="0" />
        <mxCell id="1" parent="0" />
        <mxCell id="UpNUviDjEZ6EuJRo19ph-1" value="" style="ellipse;html=1;shape=startState;fillColor=#000000;strokeColor=#ff0000;" parent="1" vertex="1">
          <mxGeometry x="75" width="30" height="30" as="geometry" />
        </mxCell>
        <mxCell id="UpNUviDjEZ6EuJRo19ph-2" value="" style="edgeStyle=orthogonalEdgeStyle;html=1;verticalAlign=bottom;endArrow=open;endSize=8;strokeColor=#ff0000;rounded=0;entryX=0.5;entryY=0;entryDx=0;entryDy=0;" parent="1" source="UpNUviDjEZ6EuJRo19ph-1" target="UpNUviDjEZ6EuJRo19ph-3" edge="1">
          <mxGeometry relative="1" as="geometry">
            <mxPoint x="90" y="90" as="targetPoint" />
          </mxGeometry>
        </mxCell>
        <mxCell id="UpNUviDjEZ6EuJRo19ph-3" value="&lt;font style=&quot;font-size: 14px;&quot;&gt;Create Issue&lt;/font&gt;" style="rounded=1;whiteSpace=wrap;html=1;arcSize=40;fontColor=#000000;fillColor=#ffffc0;strokeColor=#ff0000;fontSize=15;" parent="1" vertex="1">
          <mxGeometry x="20" y="60" width="140" height="60" as="geometry" />
        </mxCell>
        <mxCell id="UpNUviDjEZ6EuJRo19ph-4" value="" style="edgeStyle=orthogonalEdgeStyle;html=1;verticalAlign=bottom;endArrow=open;endSize=8;strokeColor=#ff0000;rounded=0;entryX=0.5;entryY=0;entryDx=0;entryDy=0;entryPerimeter=0;" parent="1" source="UpNUviDjEZ6EuJRo19ph-3" target="UpNUviDjEZ6EuJRo19ph-82" edge="1">
          <mxGeometry relative="1" as="geometry">
            <mxPoint x="300" y="90" as="targetPoint" />
          </mxGeometry>
        </mxCell>
        <mxCell id="UpNUviDjEZ6EuJRo19ph-5" value="&lt;font style=&quot;font-size: 14px;&quot;&gt;Assign Issue &lt;br&gt;to developer&lt;/font&gt;" style="rounded=1;whiteSpace=wrap;html=1;arcSize=40;fontColor=#000000;fillColor=#ffffc0;strokeColor=#ff0000;" parent="1" vertex="1">
          <mxGeometry x="20" y="170" width="140" height="60" as="geometry" />
        </mxCell>
        <mxCell id="UpNUviDjEZ6EuJRo19ph-6" value="" style="edgeStyle=orthogonalEdgeStyle;html=1;verticalAlign=bottom;endArrow=open;endSize=8;strokeColor=#ff0000;rounded=0;entryX=0.5;entryY=0;entryDx=0;entryDy=0;" parent="1" source="UpNUviDjEZ6EuJRo19ph-5" target="UpNUviDjEZ6EuJRo19ph-7" edge="1">
          <mxGeometry relative="1" as="geometry">
            <mxPoint x="90" y="290" as="targetPoint" />
            <Array as="points" />
          </mxGeometry>
        </mxCell>
        <mxCell id="UpNUviDjEZ6EuJRo19ph-7" value="&lt;font style=&quot;font-size: 14px;&quot;&gt;New Branch &lt;br&gt;is created&lt;/font&gt;" style="rounded=1;whiteSpace=wrap;html=1;arcSize=40;fontColor=#000000;fillColor=#ffffc0;strokeColor=#ff0000;" parent="1" vertex="1">
          <mxGeometry x="20" y="260" width="140" height="60" as="geometry" />
        </mxCell>
        <mxCell id="UpNUviDjEZ6EuJRo19ph-8" value="" style="edgeStyle=orthogonalEdgeStyle;html=1;verticalAlign=bottom;endArrow=open;endSize=8;strokeColor=#ff0000;rounded=0;entryX=0.5;entryY=0;entryDx=0;entryDy=0;" parent="1" source="UpNUviDjEZ6EuJRo19ph-7" target="UpNUviDjEZ6EuJRo19ph-26" edge="1">
          <mxGeometry relative="1" as="geometry">
            <mxPoint x="90" y="430" as="targetPoint" />
          </mxGeometry>
        </mxCell>
        <mxCell id="UpNUviDjEZ6EuJRo19ph-9" value="" style="line;strokeWidth=1;fillColor=none;align=left;verticalAlign=middle;spacingTop=-1;spacingLeft=3;spacingRight=3;rotatable=0;labelPosition=right;points=[];portConstraint=eastwest;strokeColor=inherit;" parent="1" vertex="1">
          <mxGeometry x="26" y="590" width="40" as="geometry" />
        </mxCell>
        <mxCell id="UpNUviDjEZ6EuJRo19ph-26" value="&lt;span style=&quot;font-size: 14px;&quot;&gt;Assigned developer&lt;br&gt;works on issue&lt;br&gt;&lt;/span&gt;" style="rounded=1;whiteSpace=wrap;html=1;arcSize=40;fontColor=#000000;fillColor=#ffffc0;strokeColor=#ff0000;" parent="1" vertex="1">
          <mxGeometry x="20" y="350" width="140" height="60" as="geometry" />
        </mxCell>
        <mxCell id="UpNUviDjEZ6EuJRo19ph-27" value="" style="edgeStyle=orthogonalEdgeStyle;html=1;verticalAlign=bottom;endArrow=open;endSize=8;strokeColor=#ff0000;rounded=0;entryX=0.5;entryY=0;entryDx=0;entryDy=0;" parent="1" source="UpNUviDjEZ6EuJRo19ph-26" target="UpNUviDjEZ6EuJRo19ph-29" edge="1">
          <mxGeometry relative="1" as="geometry">
            <mxPoint x="90" y="540" as="targetPoint" />
          </mxGeometry>
        </mxCell>
        <mxCell id="UpNUviDjEZ6EuJRo19ph-29" value="&lt;span style=&quot;font-size: 14px;&quot;&gt;Developer commits&lt;br&gt;changes to branch&lt;br&gt;&lt;/span&gt;" style="rounded=1;whiteSpace=wrap;html=1;arcSize=40;fontColor=#000000;fillColor=#ffffc0;strokeColor=#ff0000;" parent="1" vertex="1">
          <mxGeometry x="20" y="440" width="140" height="60" as="geometry" />
        </mxCell>
        <mxCell id="UpNUviDjEZ6EuJRo19ph-30" value="" style="edgeStyle=orthogonalEdgeStyle;html=1;verticalAlign=bottom;endArrow=open;endSize=8;strokeColor=#ff0000;rounded=0;entryX=0.5;entryY=0;entryDx=0;entryDy=0;" parent="1" source="UpNUviDjEZ6EuJRo19ph-29" target="UpNUviDjEZ6EuJRo19ph-31" edge="1">
          <mxGeometry relative="1" as="geometry">
            <mxPoint x="90" y="524.9999999999998" as="targetPoint" />
          </mxGeometry>
        </mxCell>
        <mxCell id="UpNUviDjEZ6EuJRo19ph-87" value="" style="edgeStyle=orthogonalEdgeStyle;rounded=0;orthogonalLoop=1;jettySize=auto;html=1;" parent="1" source="UpNUviDjEZ6EuJRo19ph-31" target="UpNUviDjEZ6EuJRo19ph-29" edge="1">
          <mxGeometry relative="1" as="geometry" />
        </mxCell>
        <mxCell id="UpNUviDjEZ6EuJRo19ph-31" value="&lt;font style=&quot;font-size: 14px;&quot;&gt;Issue is resolved&lt;/font&gt;" style="rhombus;whiteSpace=wrap;html=1;fontColor=#000000;fillColor=#ffffc0;strokeColor=#ff0000;" parent="1" vertex="1">
          <mxGeometry x="20" y="520" width="140" height="90" as="geometry" />
        </mxCell>
        <mxCell id="UpNUviDjEZ6EuJRo19ph-32" value="no" style="edgeStyle=orthogonalEdgeStyle;html=1;align=left;verticalAlign=bottom;endArrow=open;endSize=8;strokeColor=#ff0000;rounded=0;fontSize=14;exitX=1;exitY=0.5;exitDx=0;exitDy=0;" parent="1" source="UpNUviDjEZ6EuJRo19ph-31" edge="1">
          <mxGeometry x="-0.9871" y="20" relative="1" as="geometry">
            <mxPoint x="160" y="380" as="targetPoint" />
            <mxPoint x="168" y="569.9999999999998" as="sourcePoint" />
            <Array as="points">
              <mxPoint x="190" y="565" />
              <mxPoint x="190" y="380" />
            </Array>
            <mxPoint x="1" as="offset" />
          </mxGeometry>
        </mxCell>
        <mxCell id="UpNUviDjEZ6EuJRo19ph-33" value="yes" style="edgeStyle=orthogonalEdgeStyle;html=1;align=left;verticalAlign=top;endArrow=open;endSize=8;strokeColor=#ff0000;rounded=0;fontSize=14;entryX=0.5;entryY=0;entryDx=0;entryDy=0;exitX=0.5;exitY=1;exitDx=0;exitDy=0;" parent="1" source="UpNUviDjEZ6EuJRo19ph-31" target="UpNUviDjEZ6EuJRo19ph-39" edge="1">
          <mxGeometry x="-0.7135" y="16" relative="1" as="geometry">
            <mxPoint x="457" y="255" as="targetPoint" />
            <mxPoint x="251" y="79.99999999999977" as="sourcePoint" />
            <Array as="points">
              <mxPoint x="90" y="615" />
              <mxPoint x="200" y="615" />
              <mxPoint x="200" y="250" />
              <mxPoint x="503" y="250" />
            </Array>
            <mxPoint y="-1" as="offset" />
          </mxGeometry>
        </mxCell>
        <mxCell id="UpNUviDjEZ6EuJRo19ph-39" value="&lt;font style=&quot;font-size: 14px;&quot;&gt;Changes are pushed&lt;br&gt;to branch&lt;/font&gt;" style="rounded=1;whiteSpace=wrap;html=1;arcSize=40;fontColor=#000000;fillColor=#ffffc0;strokeColor=#ff0000;" parent="1" vertex="1">
          <mxGeometry x="432.5" y="270" width="140" height="60" as="geometry" />
        </mxCell>
        <mxCell id="UpNUviDjEZ6EuJRo19ph-40" value="" style="edgeStyle=orthogonalEdgeStyle;html=1;verticalAlign=bottom;endArrow=open;endSize=8;strokeColor=#ff0000;rounded=0;entryX=0.5;entryY=0;entryDx=0;entryDy=0;" parent="1" source="UpNUviDjEZ6EuJRo19ph-39" target="UpNUviDjEZ6EuJRo19ph-55" edge="1">
          <mxGeometry relative="1" as="geometry">
            <mxPoint x="420" y="370" as="targetPoint" />
            <Array as="points" />
          </mxGeometry>
        </mxCell>
        <mxCell id="UpNUviDjEZ6EuJRo19ph-47" value="" style="edgeStyle=orthogonalEdgeStyle;rounded=0;orthogonalLoop=1;jettySize=auto;html=1;entryX=0.5;entryY=0;entryDx=0;entryDy=0;" parent="1" target="UpNUviDjEZ6EuJRo19ph-63" edge="1">
          <mxGeometry relative="1" as="geometry">
            <mxPoint x="459" y="450" as="sourcePoint" />
            <mxPoint x="480" y="470" as="targetPoint" />
            <Array as="points">
              <mxPoint x="458" y="450" />
            </Array>
          </mxGeometry>
        </mxCell>
        <mxCell id="UpNUviDjEZ6EuJRo19ph-44" value="" style="shape=line;html=1;strokeWidth=6;strokeColor=#ff0000;" parent="1" vertex="1">
          <mxGeometry x="210" y="440" width="590" height="10" as="geometry" />
        </mxCell>
        <mxCell id="UpNUviDjEZ6EuJRo19ph-50" value="" style="edgeStyle=orthogonalEdgeStyle;rounded=0;orthogonalLoop=1;jettySize=auto;html=1;entryX=0.5;entryY=0;entryDx=0;entryDy=0;" parent="1" target="UpNUviDjEZ6EuJRo19ph-53" edge="1">
          <mxGeometry relative="1" as="geometry">
            <mxPoint x="313" y="450" as="sourcePoint" />
            <mxPoint x="290" y="530" as="targetPoint" />
            <Array as="points" />
          </mxGeometry>
        </mxCell>
        <mxCell id="UpNUviDjEZ6EuJRo19ph-51" value="" style="edgeStyle=orthogonalEdgeStyle;rounded=0;orthogonalLoop=1;jettySize=auto;html=1;entryX=0.5;entryY=0;entryDx=0;entryDy=0;" parent="1" target="UpNUviDjEZ6EuJRo19ph-69" edge="1">
          <mxGeometry relative="1" as="geometry">
            <mxPoint x="600" y="450" as="sourcePoint" />
            <mxPoint x="619.41" y="530" as="targetPoint" />
            <Array as="points">
              <mxPoint x="600" y="450" />
            </Array>
          </mxGeometry>
        </mxCell>
        <mxCell id="UpNUviDjEZ6EuJRo19ph-52" value="" style="edgeStyle=orthogonalEdgeStyle;rounded=0;orthogonalLoop=1;jettySize=auto;html=1;entryX=0.5;entryY=0;entryDx=0;entryDy=0;" parent="1" target="UpNUviDjEZ6EuJRo19ph-73" edge="1">
          <mxGeometry relative="1" as="geometry">
            <mxPoint x="750" y="450" as="sourcePoint" />
            <mxPoint x="770" y="530" as="targetPoint" />
            <Array as="points" />
          </mxGeometry>
        </mxCell>
        <mxCell id="UpNUviDjEZ6EuJRo19ph-53" value="&lt;font style=&quot;font-size: 14px;&quot;&gt;Github runs &lt;br&gt;the test suite&lt;/font&gt;" style="rounded=1;whiteSpace=wrap;html=1;arcSize=40;fontColor=#000000;fillColor=#ffffc0;strokeColor=#ff0000;" parent="1" vertex="1">
          <mxGeometry x="241" y="480" width="140" height="60" as="geometry" />
        </mxCell>
        <mxCell id="UpNUviDjEZ6EuJRo19ph-54" value="" style="edgeStyle=orthogonalEdgeStyle;html=1;verticalAlign=bottom;endArrow=open;endSize=8;strokeColor=#ff0000;rounded=0;entryX=0.5;entryY=0;entryDx=0;entryDy=0;exitX=0.5;exitY=1;exitDx=0;exitDy=0;" parent="1" source="UpNUviDjEZ6EuJRo19ph-53" target="UpNUviDjEZ6EuJRo19ph-79" edge="1">
          <mxGeometry relative="1" as="geometry">
            <mxPoint x="290" y="700" as="targetPoint" />
            <Array as="points">
              <mxPoint x="311" y="590" />
              <mxPoint x="560" y="590" />
            </Array>
          </mxGeometry>
        </mxCell>
        <mxCell id="UpNUviDjEZ6EuJRo19ph-55" value="&lt;font style=&quot;font-size: 14px;&quot;&gt;Pull request to &lt;br style=&quot;&quot;&gt;main branch is made&lt;/font&gt;" style="rounded=1;whiteSpace=wrap;html=1;arcSize=40;fontColor=#000000;fillColor=#ffffc0;strokeColor=#ff0000;" parent="1" vertex="1">
          <mxGeometry x="432.5" y="350" width="140" height="60" as="geometry" />
        </mxCell>
        <mxCell id="UpNUviDjEZ6EuJRo19ph-56" value="" style="edgeStyle=orthogonalEdgeStyle;html=1;verticalAlign=bottom;endArrow=open;endSize=8;strokeColor=#ff0000;rounded=0;exitX=0.5;exitY=1;exitDx=0;exitDy=0;" parent="1" source="UpNUviDjEZ6EuJRo19ph-55" target="UpNUviDjEZ6EuJRo19ph-44" edge="1">
          <mxGeometry relative="1" as="geometry">
            <mxPoint x="520" y="430" as="targetPoint" />
            <Array as="points">
              <mxPoint x="505" y="410" />
            </Array>
          </mxGeometry>
        </mxCell>
        <mxCell id="UpNUviDjEZ6EuJRo19ph-63" value="&lt;font style=&quot;font-size: 14px;&quot;&gt;Github links pull request to issue&lt;/font&gt;" style="rounded=1;whiteSpace=wrap;html=1;arcSize=40;fontColor=#000000;fillColor=#ffffc0;strokeColor=#ff0000;" parent="1" vertex="1">
          <mxGeometry x="388" y="480" width="140" height="60" as="geometry" />
        </mxCell>
        <mxCell id="UpNUviDjEZ6EuJRo19ph-69" value="&lt;font style=&quot;font-size: 14px;&quot;&gt;Github runs &lt;br&gt;CodeQL&lt;br&gt;&lt;/font&gt;" style="rounded=1;whiteSpace=wrap;html=1;arcSize=40;fontColor=#000000;fillColor=#ffffc0;strokeColor=#ff0000;" parent="1" vertex="1">
          <mxGeometry x="530" y="480" width="140" height="60" as="geometry" />
        </mxCell>
        <mxCell id="UpNUviDjEZ6EuJRo19ph-70" value="" style="edgeStyle=orthogonalEdgeStyle;html=1;verticalAlign=bottom;endArrow=open;endSize=8;strokeColor=#ff0000;rounded=0;entryX=0.5;entryY=0;entryDx=0;entryDy=0;exitX=0.5;exitY=1;exitDx=0;exitDy=0;" parent="1" source="UpNUviDjEZ6EuJRo19ph-69" target="UpNUviDjEZ6EuJRo19ph-79" edge="1">
          <mxGeometry relative="1" as="geometry">
            <mxPoint x="620" y="760" as="targetPoint" />
            <Array as="points">
              <mxPoint x="600" y="590" />
              <mxPoint x="559" y="590" />
            </Array>
          </mxGeometry>
        </mxCell>
        <mxCell id="UpNUviDjEZ6EuJRo19ph-73" value="&lt;span style=&quot;font-size: 14px;&quot;&gt;Different developer(s) reviews the code&lt;/span&gt;" style="rounded=1;whiteSpace=wrap;html=1;arcSize=40;fontColor=#000000;fillColor=#ffffc0;strokeColor=#ff0000;" parent="1" vertex="1">
          <mxGeometry x="680" y="480" width="140" height="60" as="geometry" />
        </mxCell>
        <mxCell id="UpNUviDjEZ6EuJRo19ph-74" value="" style="edgeStyle=orthogonalEdgeStyle;html=1;verticalAlign=bottom;endArrow=open;endSize=8;strokeColor=#ff0000;rounded=0;entryX=0.5;entryY=0;entryDx=0;entryDy=0;exitX=0.5;exitY=1;exitDx=0;exitDy=0;" parent="1" source="UpNUviDjEZ6EuJRo19ph-73" target="UpNUviDjEZ6EuJRo19ph-79" edge="1">
          <mxGeometry relative="1" as="geometry">
            <mxPoint x="770" y="770" as="targetPoint" />
            <Array as="points">
              <mxPoint x="750" y="590" />
              <mxPoint x="559" y="590" />
            </Array>
          </mxGeometry>
        </mxCell>
        <mxCell id="UpNUviDjEZ6EuJRo19ph-79" value="&lt;font style=&quot;font-size: 14px;&quot;&gt;All checks passes&lt;/font&gt;" style="rhombus;whiteSpace=wrap;html=1;fontColor=#000000;fillColor=#ffffc0;strokeColor=#ff0000;" parent="1" vertex="1">
          <mxGeometry x="490" y="630" width="140" height="90" as="geometry" />
        </mxCell>
        <mxCell id="UpNUviDjEZ6EuJRo19ph-80" value="no" style="edgeStyle=orthogonalEdgeStyle;html=1;align=left;verticalAlign=bottom;endArrow=open;endSize=8;strokeColor=#ff0000;rounded=0;exitX=0;exitY=0.5;exitDx=0;exitDy=0;entryX=0;entryY=0.5;entryDx=0;entryDy=0;fontSize=14;" parent="1" source="UpNUviDjEZ6EuJRo19ph-79" target="UpNUviDjEZ6EuJRo19ph-26" edge="1">
          <mxGeometry x="-0.8981" y="-5" relative="1" as="geometry">
            <mxPoint x="740" y="380" as="targetPoint" />
            <Array as="points">
              <mxPoint x="10" y="675" />
              <mxPoint x="10" y="380" />
            </Array>
            <mxPoint as="offset" />
          </mxGeometry>
        </mxCell>
        <mxCell id="UpNUviDjEZ6EuJRo19ph-81" value="yes" style="edgeStyle=orthogonalEdgeStyle;html=1;align=left;verticalAlign=top;endArrow=open;endSize=8;strokeColor=#ff0000;rounded=0;exitX=0.5;exitY=1;exitDx=0;exitDy=0;fontSize=14;" parent="1" source="UpNUviDjEZ6EuJRo19ph-79" target="UpNUviDjEZ6EuJRo19ph-97" edge="1">
          <mxGeometry x="-1" y="10" relative="1" as="geometry">
            <mxPoint x="560" y="770" as="targetPoint" />
            <Array as="points" />
            <mxPoint as="offset" />
          </mxGeometry>
        </mxCell>
        <mxCell id="UpNUviDjEZ6EuJRo19ph-84" value="" style="edgeStyle=orthogonalEdgeStyle;rounded=0;orthogonalLoop=1;jettySize=auto;html=1;" parent="1" source="UpNUviDjEZ6EuJRo19ph-82" edge="1">
          <mxGeometry relative="1" as="geometry">
            <mxPoint x="90" y="170" as="targetPoint" />
            <Array as="points">
              <mxPoint x="90" y="160" />
              <mxPoint x="90" y="160" />
            </Array>
          </mxGeometry>
        </mxCell>
        <mxCell id="UpNUviDjEZ6EuJRo19ph-90" value="" style="edgeStyle=orthogonalEdgeStyle;rounded=0;orthogonalLoop=1;jettySize=auto;html=1;" parent="1" source="UpNUviDjEZ6EuJRo19ph-82" target="UpNUviDjEZ6EuJRo19ph-88" edge="1">
          <mxGeometry relative="1" as="geometry">
            <Array as="points">
              <mxPoint x="250" y="160" />
              <mxPoint x="250" y="160" />
            </Array>
          </mxGeometry>
        </mxCell>
        <mxCell id="UpNUviDjEZ6EuJRo19ph-82" value="" style="shape=line;html=1;strokeWidth=6;strokeColor=#ff0000;" parent="1" vertex="1">
          <mxGeometry x="7" y="140" width="280" height="10" as="geometry" />
        </mxCell>
        <mxCell id="UpNUviDjEZ6EuJRo19ph-88" value="&lt;font style=&quot;font-size: 13px;&quot;&gt;Issue is added to project board - Worklow set status to new&lt;/font&gt;" style="rounded=1;whiteSpace=wrap;html=1;arcSize=40;fontColor=#000000;fillColor=#ffffc0;strokeColor=#ff0000;" parent="1" vertex="1">
          <mxGeometry x="180" y="170" width="140" height="60" as="geometry" />
        </mxCell>
        <mxCell id="UpNUviDjEZ6EuJRo19ph-93" value="&lt;font style=&quot;font-size: 14px;&quot;&gt;Changes are merged into main branch&lt;/font&gt;" style="rounded=1;whiteSpace=wrap;html=1;arcSize=40;fontColor=#000000;fillColor=#ffffc0;strokeColor=#ff0000;" parent="1" vertex="1">
          <mxGeometry x="360" y="800" width="140" height="60" as="geometry" />
        </mxCell>
        <mxCell id="UpNUviDjEZ6EuJRo19ph-94" value="" style="edgeStyle=orthogonalEdgeStyle;html=1;verticalAlign=bottom;endArrow=open;endSize=8;strokeColor=#ff0000;rounded=0;exitX=0.5;exitY=1;exitDx=0;exitDy=0;entryX=0.5;entryY=0;entryDx=0;entryDy=0;" parent="1" source="UpNUviDjEZ6EuJRo19ph-93" target="UpNUviDjEZ6EuJRo19ph-96" edge="1">
          <mxGeometry relative="1" as="geometry">
            <mxPoint x="480" y="880" as="targetPoint" />
            <Array as="points">
              <mxPoint x="430" y="1000" />
              <mxPoint x="557" y="1000" />
              <mxPoint x="557" y="1050" />
            </Array>
          </mxGeometry>
        </mxCell>
        <mxCell id="UpNUviDjEZ6EuJRo19ph-96" value="" style="ellipse;html=1;shape=endState;fillColor=#000000;strokeColor=#ff0000;" parent="1" vertex="1">
          <mxGeometry x="542.5" y="1050" width="30" height="30" as="geometry" />
        </mxCell>
        <mxCell id="UpNUviDjEZ6EuJRo19ph-100" value="" style="edgeStyle=orthogonalEdgeStyle;rounded=0;orthogonalLoop=1;jettySize=auto;html=1;entryX=0.5;entryY=0;entryDx=0;entryDy=0;" parent="1" source="UpNUviDjEZ6EuJRo19ph-97" target="UpNUviDjEZ6EuJRo19ph-93" edge="1">
          <mxGeometry relative="1" as="geometry">
            <mxPoint x="480" y="820" as="targetPoint" />
            <Array as="points">
              <mxPoint x="430" y="770" />
              <mxPoint x="430" y="770" />
            </Array>
          </mxGeometry>
        </mxCell>
        <mxCell id="UpNUviDjEZ6EuJRo19ph-103" value="" style="edgeStyle=orthogonalEdgeStyle;rounded=0;orthogonalLoop=1;jettySize=auto;html=1;" parent="1" source="UpNUviDjEZ6EuJRo19ph-97" target="UpNUviDjEZ6EuJRo19ph-101" edge="1">
          <mxGeometry relative="1" as="geometry">
            <Array as="points">
              <mxPoint x="643" y="770" />
              <mxPoint x="643" y="770" />
            </Array>
          </mxGeometry>
        </mxCell>
        <mxCell id="UpNUviDjEZ6EuJRo19ph-97" value="" style="shape=line;html=1;strokeWidth=6;strokeColor=#ff0000;" parent="1" vertex="1">
          <mxGeometry x="410" y="750" width="300" height="10" as="geometry" />
        </mxCell>
        <mxCell id="UpNUviDjEZ6EuJRo19ph-101" value="&lt;font style=&quot;font-size: 14px;&quot;&gt;Issue is closed&lt;/font&gt;" style="rounded=1;whiteSpace=wrap;html=1;arcSize=40;fontColor=#000000;fillColor=#ffffc0;strokeColor=#ff0000;" parent="1" vertex="1">
          <mxGeometry x="572.5" y="800" width="140" height="60" as="geometry" />
        </mxCell>
        <mxCell id="UpNUviDjEZ6EuJRo19ph-102" value="" style="edgeStyle=orthogonalEdgeStyle;html=1;verticalAlign=bottom;endArrow=open;endSize=8;strokeColor=#ff0000;rounded=0;entryX=0.5;entryY=0;entryDx=0;entryDy=0;" parent="1" source="UpNUviDjEZ6EuJRo19ph-101" target="UpNUviDjEZ6EuJRo19ph-104" edge="1">
          <mxGeometry relative="1" as="geometry">
            <mxPoint x="632.5" y="900" as="targetPoint" />
            <Array as="points">
              <mxPoint x="643" y="870" />
              <mxPoint x="643" y="870" />
            </Array>
          </mxGeometry>
        </mxCell>
        <mxCell id="UpNUviDjEZ6EuJRo19ph-104" value="&lt;font style=&quot;font-size: 13px;&quot;&gt;Workflow sets status&lt;br&gt;of the issue to done on project board&lt;/font&gt;" style="rounded=1;whiteSpace=wrap;html=1;arcSize=40;fontColor=#000000;fillColor=#ffffc0;strokeColor=#ff0000;" parent="1" vertex="1">
          <mxGeometry x="572.5" y="890" width="140" height="60" as="geometry" />
        </mxCell>
        <mxCell id="UpNUviDjEZ6EuJRo19ph-108" value="" style="edgeStyle=orthogonalEdgeStyle;html=1;verticalAlign=bottom;endArrow=open;endSize=8;strokeColor=#ff0000;rounded=0;entryX=0.5;entryY=0;entryDx=0;entryDy=0;exitX=0.5;exitY=1;exitDx=0;exitDy=0;" parent="1" source="UpNUviDjEZ6EuJRo19ph-104" target="UpNUviDjEZ6EuJRo19ph-96" edge="1">
          <mxGeometry relative="1" as="geometry">
            <mxPoint x="642.08" y="1020" as="targetPoint" />
            <mxPoint x="642.08" y="990" as="sourcePoint" />
            <Array as="points">
              <mxPoint x="643" y="1000" />
              <mxPoint x="558" y="1000" />
            </Array>
          </mxGeometry>
        </mxCell>
      </root>
    </mxGraphModel>
  </diagram>
</mxfile>
